<svg version="1.2" xmlns="http://www.w3.org/2000/svg" viewBox="0 0 20 26" width="20" height="26"><style>.a{fill:#fff}</style><path fill-rule="evenodd" class="a" d="m19.4 6.8l-3.5 6.1c-0.6 0.9-1.8 1.3-2.8 0.7l-0.8-0.5 1-1.7c0.4 0.2 1.1 0.1 1.3-0.4l2.5-4.3c0.3-0.5 0.1-1.1-0.3-1.4l-3.5-2c-0.5-0.3-1.1-0.1-1.4 0.4l-2.5 4.3c-0.2 0.5-0.1 1.1 0.4 1.4l-1 1.7-0.9-0.5c-0.9-0.5-1.3-1.8-0.7-2.7l3.5-6.1c0.6-0.9 1.8-1.3 2.7-0.7l5.2 3c1 0.5 1.3 1.8 0.8 2.7zm-11.9 10.5c-0.4-0.3-0.6-0.9-0.3-1.4l4-6.9c0.2-0.5 0.9-0.6 1.3-0.4 0.5 0.3 0.7 0.9 0.4 1.4l-4 6.9c-0.3 0.5-0.9 0.7-1.4 0.4zm-0.7-2.7c-0.5-0.3-1.1-0.1-1.4 0.3l-2.5 4.4c-0.2 0.4-0.1 1.1 0.4 1.3l3.5 2c0.4 0.3 1.1 0.1 1.3-0.3l2.5-4.4c0.3-0.4 0.1-1.1-0.3-1.3l1-1.8 0.8 0.5c1 0.6 1.3 1.8 0.8 2.8l-3.5 6c-0.6 1-1.8 1.3-2.8 0.8l-5.2-3c-0.9-0.6-1.3-1.8-0.7-2.8l3.5-6c0.6-1 1.8-1.3 2.7-0.8l0.9 0.5z"/></svg>