<svg version="1.2" xmlns="http://www.w3.org/2000/svg" viewBox="0 0 24 20" width="24" height="20"><style>.a{fill:#2aacc8}</style><path fill-rule="evenodd" class="a" d="m17.8 14h-1.5l-3.2-2.8c1.9-0.7 3-1.6 3.6-2.2v-0.6c-0.7 0.1-2.2-0.4-1.6-0.7 0.4-0.2 0.5-0.5 0.6-0.7q0-0.3-0.1-0.6v-0.3q0 0.1-0.1 0.1c-0.2 0-0.4-0.2-0.4-0.4v-0.8c0-0.2 0.2-0.4 0.4-0.4q0 0 0 0v-0.5c-0.1-1.4 1-2.6 2.3-2.6 1.4 0 2.4 1.2 2.3 2.6v0.5q0 0 0 0c0.3 0 0.4 0.2 0.4 0.4v0.8c0 0.2-0.1 0.4-0.4 0.4q0 0-0.1-0.1v0.3q0 0.3-0.1 0.6c0.1 0.3 0.3 0.5 0.5 0.7 0.6 0.3-0.7 0.8-1.4 0.7v0.6c0.5 0.6 1.8 1.6 3.8 2.3 0 0 1.2 0.9 1.2 1.8v0.9zm-3.9-6.5q-0.1 0-0.2-0.1v0.5c-0.1 1.1-0.7 2.1-1.7 2.7v1.4c1 1 2.9 2.6 6.4 3.6 0 0 1.9 1.5 1.9 2.9v1.5h-10.2-10.1v-1.5c0-1.4 1.9-2.9 1.9-2.9 3.4-1 5.4-2.6 6.3-3.6v-1.4c-0.9-0.6-1.6-1.6-1.7-2.7v-0.5q-0.1 0.1-0.2 0.1c-0.3 0-0.6-0.3-0.6-0.7v-1.2c0-0.4 0.3-0.6 0.6-0.6q0 0 0.1 0l-0.1-0.8c-0.1-2.3 1.6-4.2 3.8-4.2 2.3 0 3.9 1.9 3.8 4.2v0.8q0 0 0 0c0.4 0 0.7 0.2 0.7 0.6v1.2c0 0.4-0.3 0.7-0.7 0.7z"/></svg>